<svg width="18" height="16" viewBox="0 0 18 16" fill="none" xmlns="http://www.w3.org/2000/svg">
<rect x="3.70654" y="0.700684" width="10.7154" height="15.0335" fill="#823FAB"/>
<rect x="3.70654" y="1.21021" width="10.7154" height="1.27402" fill="#905EAF"/>
<rect x="3.70654" y="13.9507" width="10.7154" height="1.27402" fill="#905EAF"/>
<rect x="3.70654" y="10.8928" width="10.7154" height="1.27402" fill="#905EAF"/>
<rect x="3.70654" y="4.0625" width="10.7154" height="1.27402" fill="#905EAF"/>
<rect x="0.467285" y="0.700684" width="2.99034" height="7.89894" fill="#D28800"/>
<rect x="1.46411" y="8.34497" width="1.99356" height="6.62492" fill="#D28800"/>
<rect x="14.4216" y="0.700684" width="2.99034" height="7.89894" fill="#D28800"/>
<rect x="14.4216" y="8.34473" width="1.99356" height="6.62492" fill="#D28800"/>
<rect x="3.45776" y="7.58057" width="10.9646" height="1.52883" fill="#FBB603"/>
<mask id="mask0_79_407" style="mask-type:alpha" maskUnits="userSpaceOnUse" x="0" y="0" width="18" height="16">
<path d="M17.2412 0H14.6869C14.5176 0 14.3552 0.068762 14.2354 0.191249C14.1156 0.313674 14.0484 0.479761 14.0484 0.652937V1.30587H3.83138V0.652937C3.83138 0.479773 3.76413 0.313688 3.64434 0.191249C3.52461 0.068755 3.36218 0 3.19281 0H0.638563C0.469211 0 0.306783 0.068762 0.187039 0.191249C0.0672415 0.313674 0 0.479761 0 0.652937V8.48818C0 8.66134 0.0672484 8.82743 0.187039 8.94987C0.306769 9.07236 0.469199 9.14112 0.638563 9.14112V15.0175C0.638563 15.1907 0.705811 15.3568 0.825602 15.4792C0.945332 15.6017 1.10776 15.6705 1.27713 15.6705H16.6026C16.772 15.6705 16.9344 15.6017 17.0542 15.4792C17.174 15.3568 17.2412 15.1907 17.2412 15.0175V9.14112C17.4105 9.14112 17.573 9.07235 17.6927 8.94987C17.8125 8.82744 17.8798 8.66136 17.8798 8.48818V0.652937C17.8798 0.479773 17.8125 0.313688 17.6927 0.191249C17.573 0.068755 17.4106 0 17.2412 0ZM15.3255 1.30587H16.6026V7.83524H15.3255V1.30587ZM14.0484 2.61175V7.83524H11.4941V7.1823C11.4941 6.83597 11.3596 6.50379 11.12 6.25895C10.8806 6.01404 10.5557 5.87643 10.217 5.87643H7.66275C7.32404 5.87643 6.99918 6.01402 6.75972 6.25895C6.5202 6.50379 6.38563 6.83599 6.38563 7.1823V7.83524H3.83138V2.61175H14.0484ZM10.217 9.79405H7.66275V7.1823H10.217V9.79405ZM1.27713 1.30587H2.55425V7.83524H1.27713V1.30587ZM1.91569 9.14112H3.19281V14.3646H1.91569V9.14112ZM4.46994 9.14112H6.38563V9.79405C6.38563 10.1404 6.52019 10.4726 6.75972 10.7174C6.99918 10.9623 7.32406 11.0999 7.66275 11.0999H8.30132V11.7529C8.30132 11.9861 8.42304 12.2017 8.6206 12.3183C8.81816 12.435 9.0616 12.435 9.25916 12.3183C9.45672 12.2017 9.57844 11.9862 9.57844 11.7529V11.0999H10.217C10.5557 11.0999 10.8806 10.9623 11.12 10.7174C11.3596 10.4726 11.4941 10.1404 11.4941 9.79405V9.14112H13.4098V14.3646H4.46994V9.14112ZM15.9641 14.3646H14.6869V9.14112H15.9641V14.3646Z" fill="black"/>
</mask>
<g mask="url(#mask0_79_407)">
<path d="M3.96973 7.83521H4.4541V21.8499H-3.28516V9.10962H-3.76953V-4.90503H3.96973V7.83521Z" fill="#FBB603"/>
<path d="M21.6492 7.83521H22.1472V21.8499H14.1736V9.10962H13.6746V-4.90503H21.6492V7.83521Z" fill="#FBB603"/>
</g>
<rect x="6.448" y="5.79688" width="4.9839" height="5.3509" rx="2.49195" fill="#FBCF04"/>
<path d="M8.93997 7.0708C7.85402 7.0708 8.18584 8.10705 8.48749 8.62517C8.12551 9.77301 8.33667 9.90055 8.48749 9.82084C8.78914 9.86069 9.41507 9.91649 9.50557 9.82084C9.59606 9.72518 9.46786 8.90416 9.39245 8.5056C9.6941 8.02733 10.0259 7.0708 8.93997 7.0708Z" fill="#DB8E00"/>
</svg>
