<svg width="24" height="24" viewBox="0 0 24 24" fill="currentColor" xmlns="http://www.w3.org/2000/svg">
  <path d="M7.5 7h9c1.9 0 3.5 1.3 3.9 3.2l1 4.3c.4 1.9-1 3.7-2.9 3.7-.8 0-1.6-.3-2.1-.9l-1.3-1.5a2 2 0 0 0-1.5-.7H10a2 2 0 0 0-1.5.7l-1.3 1.5c-.5.6-1.3.9-2.1.9-1.9 0-3.3-1.8-2.9-3.7l1-4.3C4 8.3 5.6 7 7.5 7Z"/>
  <rect x="7.1" y="10.2" width="4.2" height="1.4" rx=".7" fill="white" opacity=".9"/>
  <rect x="8.5" y="8.8" width="1.4" height="4.2" rx=".7" fill="white" opacity=".9"/>
  <circle cx="15.9" cy="10.5" r="1.1" fill="white" opacity=".9"/>
  <circle cx="17.9" cy="12.3" r="1.1" fill="white" opacity=".9"/>
</svg>
