<svg
  xmlns="http://www.w3.org/2000/svg"
  width="24"
  height="24"
  viewBox="0 0 24 24"
  fill="currentColor"
>

  <path d="M12 3c2.2 0 4 1.4 4.6 3.3 1.8.2 3.4 1.7 3.4 3.6 0 1.7-1 3.2-2.6 3.8.4.5.6 1.1.6 1.8 0 1.9-1.6 3.5-3.5 3.5h-1v3c0 .6-.4 1-1 1h-2c-.6 0-1-.4-1-1v-3h-1c-1.9 0-3.5-1.6-3.5-3.5 0-.7.2-1.3.6-1.8C5 13.1 4 11.6 4 9.9c0-1.9 1.6-3.4 3.4-3.6C8 4.4 9.8 3 12 3Z"/>
 
  <path d="M17.5 7.5c1.8 0 3.3 1.4 3.3 3.2 0 1.5-1 2.8-2.5 3.1-.3 0-.8.1-1.1-.2-.4-.3-.4-.7-.4-1.1 0-1.6-.4-3.1-.9-4.5-.2-.5-.1-.8.1-1.1.2-.2.6-.4 1.5-.4Z"/>

  <path d="M6.5 7.5c-.9 0-1.3.2-1.5.4-.2.3-.3.6-.1 1.1.5 1.4.9 2.9.9 4.5 0 .4 0 .8-.4 1.1-.3.3-.8.2-1.1.2-1.5-.3-2.5-1.6-2.5-3.1 0-1.8 1.5-3.2 3.3-3.2Z"/>

  <rect x="10.5" y="17" width="3" height="5" rx="1" ry="1"/>
</svg>