<svg width="54" height="54" viewBox="0 0 54 54" fill="none" xmlns="http://www.w3.org/2000/svg">
<path d="M5.7245 2.86075C5.72481 3.4529 5.54145 4.03057 5.1997 4.51416C4.85794 4.99774 4.37462 5.36342 3.81633 5.5608V19.0802L7.93797 29.5503L3.81633 40.07C1.71735 40.07 8.62789e-07 38.3526 8.62789e-07 36.2575V22.8927C0.00135583 22.2241 0.178337 21.5676 0.513222 20.9889C0.848107 20.4102 1.32914 19.9297 1.90817 19.5954V5.5608C1.41349 5.38591 0.976413 5.07841 0.644685 4.67191C0.312956 4.26541 0.0993449 3.77554 0.0271937 3.25585C-0.0449576 2.73616 0.0271275 2.20663 0.235572 1.72513C0.444016 1.24364 0.780799 0.828702 1.20912 0.525667C1.63744 0.222631 2.14081 0.0431578 2.66423 0.00685899C3.18765 -0.0294398 3.71098 0.0788328 4.17703 0.319845C4.64307 0.560856 5.03391 0.925333 5.30682 1.37345C5.57973 1.82156 5.72422 2.33607 5.7245 2.86075ZM53.524 2.95616C53.524 4.25562 52.6844 5.36044 51.5205 5.75734V19.4618C52.6596 20.1239 53.4286 21.3585 53.4286 22.7629V36.1391C53.4286 38.2381 51.7113 39.9555 49.6123 39.9555L44.0023 29.1171L49.6123 18.9466V5.75734C49.0978 5.58199 48.6415 5.26823 48.2936 4.85052C47.9458 4.43281 47.7197 3.92731 47.6404 3.38954C47.5611 2.85177 47.6314 2.30253 47.8438 1.80215C48.0562 1.30177 48.4024 0.869603 48.8444 0.553116C49.2864 0.236629 49.807 0.0480645 50.3491 0.00813238C50.8912 -0.0317997 51.4339 0.0784454 51.9174 0.32676C52.401 0.575074 52.8068 0.951851 53.0902 1.41571C53.3736 1.87957 53.5237 2.41256 53.524 2.95616Z" fill="#F8312F"/>
<path d="M17.1733 4.76899C17.1733 4.00988 17.4749 3.28185 18.0117 2.74508C18.5484 2.2083 19.2765 1.90674 20.0356 1.90674H33.3927C34.0811 1.90527 34.7469 2.15191 35.2682 2.60147C35.7895 3.05103 36.1313 3.67339 36.231 4.35449C36.3306 5.03558 36.1815 5.72979 35.8109 6.30988C35.4404 6.88997 34.8732 7.31708 34.2133 7.51293C33.6847 7.6694 33.1256 7.71138 32.597 7.86785L26.7714 9.59283L20.8179 7.86022C20.2989 7.70757 19.7494 7.6694 19.2303 7.51675C18.6365 7.34266 18.1151 6.9808 17.7443 6.48542C17.3734 5.99004 17.1731 5.38781 17.1733 4.76899Z" fill="#FFB02E"/>
<path d="M38.2585 53.4271H15.1697C8.89188 53.4271 3.81616 48.3513 3.81616 42.0735V19.1373C3.81616 12.7831 8.96821 7.6311 15.3224 7.6311H38.125C44.4601 7.6311 49.6121 12.7831 49.6121 19.1373V42.0926C49.6121 48.3513 44.5364 53.4271 38.2585 53.4271Z" fill="#CDC4D6"/>
<path d="M13.8283 31.4831H39.6C44.046 31.4831 47.704 27.8213 47.704 23.3734C47.7005 21.2246 46.8457 19.1648 45.3268 17.6449C43.808 16.1249 41.7488 15.2687 39.6 15.2637H13.8283C11.6796 15.2687 9.62038 16.1249 8.10152 17.6449C6.58265 19.1648 5.72789 21.2246 5.72437 23.3734C5.72789 25.5221 6.58265 27.5819 8.10152 29.1019C9.62038 30.6218 11.6796 31.478 13.8283 31.4831ZM21.8903 45.7943H31.538C33.0875 45.7943 34.3468 44.5082 34.3468 42.9321C34.3468 41.3559 33.0875 40.0698 31.538 40.0698H21.8903C20.3409 40.0698 19.0815 41.3559 19.0815 42.9321C19.0815 44.5082 20.3409 45.7943 21.8903 45.7943Z" fill="#212121"/>
<path d="M15.7424 19.0801C14.4258 19.0801 13.3572 20.1487 13.3572 21.4653V26.2357C13.3572 26.8683 13.6085 27.475 14.0558 27.9223C14.5031 28.3696 15.1098 28.6209 15.7424 28.6209C16.375 28.6209 16.9817 28.3696 17.429 27.9223C17.8763 27.475 18.1276 26.8683 18.1276 26.2357V21.4653C18.1276 20.1487 17.059 19.0801 15.7424 19.0801ZM37.6863 19.0801C36.3696 19.0801 35.3011 20.1487 35.3011 21.4653V26.2357C35.3011 26.8683 35.5524 27.475 35.9997 27.9223C36.447 28.3696 37.0537 28.6209 37.6863 28.6209C38.3189 28.6209 38.9256 28.3696 39.3729 27.9223C39.8202 27.475 40.0715 26.8683 40.0715 26.2357V21.4653C40.0715 20.1487 39.0029 19.0801 37.6863 19.0801Z" fill="#00A6ED"/>
</svg>
